<mxfile host="app.diagrams.net" agent="Mozilla/5.0 (Windows NT 10.0; Win64; x64) AppleWebKit/537.36 (KHTML, like Gecko) Chrome/127.0.0.0 Safari/537.36" version="24.7.6">
  <diagram name="Page-1" id="efa7a0a1-bf9b-a30e-e6df-94a7791c09e9">
    <mxGraphModel dx="1687" dy="908" grid="1" gridSize="10" guides="1" tooltips="1" connect="1" arrows="1" fold="1" page="1" pageScale="1" pageWidth="826" pageHeight="1169" background="none" math="0" shadow="0">
      <root>
        <mxCell id="0" />
        <mxCell id="1" parent="0" />
        <mxCell id="25" value="&lt;p style=&quot;margin: 4px 0px 0px; text-align: center; text-decoration: underline; font-size: 19px;&quot;&gt;&lt;b style=&quot;font-size: 19px;&quot;&gt;urls&lt;/b&gt;&lt;/p&gt;&lt;hr style=&quot;font-size: 19px;&quot;&gt;&lt;p style=&quot;margin: 0px 0px 0px 8px; font-size: 19px;&quot;&gt;_id: ObjectId (PK)&lt;/p&gt;&lt;p style=&quot;margin: 0px 0px 0px 8px; font-size: 19px;&quot;&gt;original_url: String&lt;/p&gt;&lt;p style=&quot;margin: 0px 0px 0px 8px; font-size: 19px;&quot;&gt;short_url: String&lt;/p&gt;&lt;p style=&quot;margin: 0px 0px 0px 8px; font-size: 19px;&quot;&gt;createdAt: &lt;span class=&quot;hljs-type&quot; style=&quot;font-size: 19px;&quot;&gt;Date&lt;/span&gt;&lt;br style=&quot;font-size: 19px;&quot;&gt;&lt;/p&gt;" style="verticalAlign=top;align=left;overflow=fill;fontSize=19;fontFamily=Helvetica;html=1;strokeColor=#003366;shadow=1;fillColor=#D4E1F5;fontColor=#003366" parent="1" vertex="1">
          <mxGeometry x="280" y="200" width="244" height="150" as="geometry" />
        </mxCell>
      </root>
    </mxGraphModel>
  </diagram>
</mxfile>
